<svg width="2713" height="614" viewBox="0 0 2713 614" fill="none" xmlns="http://www.w3.org/2000/svg">
<path d="M2461.27 0H0V614H2713L2461.27 0Z" fill="white"/>
<path d="M442 138V193.5H508V121L442 138Z" fill="#F91B25"/>
<path d="M170 486.984V131.039H389.574V187.184H236.173V284.937H367.042L352.042 341.082H236.173V486.984H170Z" fill="black"/>
<path d="M441.636 230.321H507.809V486.984H441.636V230.321Z" fill="black"/>
<path d="M579.693 138L645.866 121V486.984H579.693V138Z" fill="black"/>
<path d="M700.203 359.154C700.203 281.955 761.865 224.306 832.048 224.306C913.26 224.306 954.368 283.96 954.368 360.157C954.368 365.17 954.368 370.183 953.867 375.697H762.366C769.384 415.299 803.473 437.857 850.597 437.857C880.675 437.857 913.261 427.33 935.318 409.284V467.434C909.751 484.979 874.66 493 842.576 493C761.865 493 700.203 436.354 700.203 359.154ZM831.045 277.443C798.962 277.443 773.395 298.497 764.371 331.583H892.205C889.198 304.513 868.644 277.443 831.045 277.443Z" fill="black"/>
<path d="M1130.86 435.351C1154.42 435.351 1170.96 428.333 1186.5 415.801V478.964C1170.46 487.987 1149.41 493 1126.85 493C1053.66 493 990.991 435.852 990.991 358.653C990.991 281.453 1053.66 224.306 1126.85 224.306C1149.41 224.306 1170.46 229.319 1186.5 238.342V301.505C1170.96 289.474 1154.42 282.456 1130.86 282.456C1089.75 282.456 1054.16 314.038 1054.16 358.653C1054.16 403.769 1089.75 435.351 1130.86 435.351Z" fill="black"/>
<path d="M1310.2 340.105V486.984H1244.03V138L1310.2 121V260.399C1323.74 239.846 1350.31 224.306 1382.89 224.306C1442.05 224.306 1476.64 264.911 1476.64 322.058V486.984H1410.46V339.604C1410.46 309.526 1393.42 283.96 1360.33 283.96C1328.75 283.96 1310.2 309.526 1310.2 340.105Z" fill="black"/>
<path d="M1529.03 359.154C1529.03 281.955 1590.69 224.306 1660.88 224.306C1742.09 224.306 1783.2 283.96 1783.2 360.157C1783.2 365.17 1783.2 370.183 1782.69 375.697H1591.19C1598.21 415.299 1632.3 437.857 1679.42 437.857C1709.5 437.857 1742.09 427.33 1764.15 409.284V467.434C1738.58 484.979 1703.49 493 1671.4 493C1590.69 493 1529.03 436.354 1529.03 359.154ZM1659.87 277.443C1627.79 277.443 1602.22 298.497 1593.2 331.583H1721.03C1718.03 304.513 1697.47 277.443 1659.87 277.443Z" fill="black"/>
<path d="M1959.69 435.351C1983.25 435.351 1999.79 428.333 2015.33 415.801V478.964C1999.29 487.987 1978.23 493 1955.67 493C1882.48 493 1819.82 435.852 1819.82 358.653C1819.82 281.453 1882.48 224.306 1955.67 224.306C1978.23 224.306 1999.29 229.319 2015.33 238.342V301.505C1999.79 289.474 1983.25 282.456 1959.69 282.456C1918.58 282.456 1882.98 314.038 1882.98 358.653C1882.98 403.769 1918.58 435.351 1959.69 435.351Z" fill="black"/>
<path d="M2072.86 138L2138.53 121V342.611L2236.78 230.321H2314.99L2206.2 349.63L2319 486.984H2240.29L2138.53 359.655V486.984H2072.86V138Z" fill="black"/>
<path d="M2351 427.29V487H2422V409L2351 427.29Z" fill="#F91B25"/>
</svg>
